#!OML:ASF F:\VICON\USERDATA\INSTALL\rory3\rory3.ASF
:FULLY-SPECIFIED
:DEGREES
32
root -1.64679 18.07 0.321755 183.268 11.6391 177.493
lowerback 30.2066 1.08786 -2.3643
upperback 5.19425 2.59893 4.76068
thorax -10.4182 1.88495 5.30906
lowerneck -12.642 -2.18343 -2.97227
upperneck 26.729 2.72014 -10.3821
head 10.8908 0.455073 -2.75738
rclavicle -4.92986e-014 -8.5875e-014
rhumerus 7.07745 3.80353 -72.8206
rradius 40.4054
rwrist 25.7256
rhand -15.0562 12.2331
rfingers 7.12502
rthumb 11.1106 -17.4528
lclavicle -4.92986e-014 -8.5875e-014
lhumerus -31.45 -9.55476 91.5319
lradius 58.9815
lwrist 11.4214
lhand -11.7889 51.1905
lfingers 7.12502
lthumb 14.2604 80.6809
rfemur -29.8469 4.12044 14.6173
rtibia 33.7837
rfoot -2.52005 -2.3369
rtoes 2.37134
lfemur -8.75604 -4.69289 -17.7027
ltibia 34.5695
lfoot -11.8654 -0.519083
ltoes -30.2163
33
root -1.69195 18.0569 0.405542 183.683 11.8991 177.494
lowerback 30.9033 1.33246 -2.40858
upperback 4.77873 2.82144 4.58155
thorax -11.1898 1.97597 5.04181
lowerneck -12.7001 -2.24656 -2.89268
upperneck 26.8299 2.53628 -10.14
head 10.9239 0.394663 -2.71067
rclavicle 1.59028e-015 1.11319e-014
rhumerus 7.36846 3.62158 -73.7301
rradius 37.8569
rwrist 25.6485
rhand -13.4276 12.547
rfingers 7.12502
rthumb 12.681 -17.048
lclavicle 1.59028e-015 1.11319e-014
lhumerus -30.7668 -10.2793 91.7674
lradius 58.6907
lwrist 11.4735
lhand -11.9721 51.5792
lfingers 7.12502
lthumb 14.0839 81.0819
rfemur -30.6478 3.94327 14.4981
rtibia 33.7082
rfoot -2.38035 -2.21064
rtoes 5.51926
lfemur -8.98226 -4.45489 -17.9102
ltibia 33.9728
lfoot -12.4627 0.093905
ltoes -29.1313
34
root -1.72559 18.0275 0.504178 184.281 12.2561 177.939
lowerback 31.4356 1.62964 -2.21371
upperback 4.4552 3.21484 4.47797
thorax -11.8033 2.13831 4.65785
lowerneck -12.7863 -2.32825 -2.92806
upperneck 26.8456 2.23538 -9.63481
head 10.9202 0.290599 -2.5627
rclavicle -2.38542e-014 -6.99722e-014
rhumerus 7.35999 3.27222 -74.556
rradius 36.015
rwrist 24.9953
rhand -10.1996 10.0563
rfingers 7.12502
rthumb 15.7915 -19.3196
lclavicle -2.38542e-014 -6.99722e-014
lhumerus -29.8048 -11.1128 91.9065
lradius 58.2946
lwrist 11.4738
lhand -11.8227 51.8229
lfingers 7.12502
lthumb 14.2279 81.3156
rfemur -31.68 4.09361 14.8695
rtibia 33.5944
rfoot -2.42642 -2.82957
rtoes 14.4627
lfemur -9.59083 -3.82145 -17.5904
ltibia 33.5975
lfoot -13.0571 0.956377
ltoes -26.4672
35
root -1.75983 18.0134 0.587714 184.718 12.6757 178.084
lowerback 31.9915 2.00371 -2.33986
upperback 4.07344 3.57795 4.33301
thorax -12.4995 2.29053 4.40949
lowerneck -12.7347 -2.40992 -3.04656
upperneck 26.8796 1.95299 -9.08652
head 10.8991 0.200966 -2.38075
rclavicle 6.75868e-014 3.97569e-014
rhumerus 6.96314 2.88319 -75.3027
rradius 34.5848
rwrist 23.7144
rhand -7.76301 8.5516
rfingers 7.12502
rthumb 18.1369 -20.6228
lclavicle 6.75868e-014 3.97569e-014
lhumerus -29.0158 -11.8303 92.1164
lradius 57.9255
lwrist 11.4326
lhand -11.8218 51.3197
lfingers 7.12502
lthumb 14.2287 80.8123
rfemur -32.4934 4.15856 14.9298
rtibia 33.4328
rfoot -1.90184 -2.60984
rtoes 13.1344
lfemur -10.088 -3.11259 -17.7219
ltibia 33.3641
lfoot -13.6161 2.15718
ltoes -27.8778
36
root -1.79398 18.0177 0.6701 185.143 12.8393 177.968
lowerback 31.2623 2.22814 -2.7508
upperback 4.73261 3.7798 4.2202
thorax -11.4778 2.41142 4.45834
lowerneck -13.8211 -2.45308 -3.00422
upperneck 26.4915 1.63592 -8.76896
head 10.9496 0.0208215 -2.32621
rclavicle -4.45278e-014 -1.00187e-013
rhumerus 8.06219 2.02809 -75.8733
rradius 33.4183
rwrist 22.0794
rhand -6.75843 8.31348
rfingers 7.12502
rthumb 19.1031 -20.7684
lclavicle -4.45278e-014 -1.00187e-013
lhumerus -26.643 -12.2612 92.1397
lradius 57.5827
lwrist 11.3718
lhand -12.081 50.8095
lfingers 7.12502
lthumb 13.979 80.3195
rfemur -33.154 4.07899 14.6697
rtibia 33.2124
rfoot -1.70487 -2.63108
rtoes 14.0269
lfemur -10.74 -2.53895 -18.1443
ltibia 33.1826
lfoot -14.0394 3.26912
ltoes -27.58
37
root -1.82585 18.0127 0.762398 185.725 12.7438 177.92
lowerback 32.634 2.53064 -2.92303
upperback 3.61714 3.93579 4.05375
thorax -13.3304 2.4521 4.25533
lowerneck -13.3172 -2.48596 -2.69861
upperneck 26.8387 1.59054 -8.75222
head 10.9734 0.0624689 -2.37656
rclavicle -5.64548e-014 -6.36111e-014
rhumerus 6.61168 1.48181 -76.6218
rradius 32.5777
rwrist 20.7959
rhand -4.86285 7.63599
rfingers 7.12502
rthumb 20.9252 -21.2554
lclavicle -5.64548e-014 -6.36111e-014
lhumerus -27.1099 -12.5066 92.6536
lradius 57.5909
lwrist 11.2655
lhand -12.5384 50.3614
lfingers 7.12502
lthumb 13.5381 79.9013
rfemur -33.9559 3.94889 14.462
rtibia 33.0003
rfoot -1.87456 -2.78749
rtoes 13.6186
lfemur -11.6662 -2.03141 -18.4204
ltibia 32.9092
lfoot -14.4576 4.17695
ltoes -26.464
38
root -1.85396 18.0091 0.841714 186.303 12.6434 178.097
lowerback 32.7359 2.69631 -2.98623
upperback 3.31565 4.07254 4.01002
thorax -13.7351 2.50233 4.18115
lowerneck -12.6612 -2.65059 -3.0131
upperneck 26.6037 1.16631 -8.11913
head 10.7306 -0.0738741 -2.13452
rclavicle 2.3059e-014 3.18055e-014
rhumerus 6.29524 1.08018 -77.1633
rradius 31.6376
rwrist 19.5996
rhand -0.260478 4.47053
rfingers 7.12502
rthumb 25.3409 -23.8658
lclavicle 2.3059e-014 3.18055e-014
lhumerus -26.4469 -12.6509 93.01
lradius 57.4576
lwrist 11.2277
lhand -12.8703 49.8749
lfingers 7.12502
lthumb 13.2182 79.4359
rfemur -34.6186 3.73647 14.5602
rtibia 32.734
rfoot -2.26235 -2.94326
rtoes 10.6827
lfemur -12.4098 -1.41039 -18.4793
ltibia 32.6238
lfoot -14.9218 5.0245
ltoes -26.0041
39
root -1.87312 18.0044 0.910914 186.718 12.5334 178.167
lowerback 31.2682 2.70255 -3.26095
upperback 4.6967 4.15394 3.90193
thorax -11.5547 2.58716 4.24663
lowerneck -14.622 -2.6442 -2.9007
upperneck 25.9738 0.773465 -7.64583
head 10.8618 -0.314141 -2.06101
rclavicle -3.49861e-014 -3.81667e-014
rhumerus 8.45402 0.330832 -77.7289
rradius 30.9238
rwrist 18.4154
rhand -0.130847 3.367
rfingers 7.12502
rthumb 25.465 -24.9517
lclavicle -3.49861e-014 -3.81667e-014
lhumerus -22.9872 -12.9951 92.6503
lradius 57.2474
lwrist 11.2528
lhand -12.9734 49.9709
lfingers 7.12502
lthumb 13.1188 79.5383
rfemur -35.0754 3.40362 14.5953
rtibia 32.4776
rfoot -2.83022 -3.06233
rtoes 7.28032
lfemur -12.9286 -1.04413 -18.6479
ltibia 32.4079
lfoot -15.2644 5.86426
ltoes -25.4787
40
root -1.88918 17.9989 0.981923 187.176 12.2128 178.45
lowerback 33.1204 2.9133 -3.4009
upperback 3.0326 4.14616 3.91065
thorax -14.246 2.54668 4.25119
lowerneck -12.8834 -2.64187 -2.78089
upperneck 26.4214 0.819491 -7.46809
head 10.6814 -0.172228 -1.98761
rclavicle 3.97569e-014 4.92986e-014
rhumerus 5.52457 0.797519 -78.3043
rradius 30.9365
rwrist 17.222
rhand -0.80518 3.16798
rfingers 7.12502
rthumb 24.8189 -25.2413
lclavicle 3.97569e-014 4.92986e-014
lhumerus -24.8157 -12.8286 93.348
lradius 57.4463
lwrist 11.1705
lhand -13.0962 50.3789
lfingers 7.12502
lthumb 13.0004 79.9538
rfemur -35.4738 2.85441 14.9436
rtibia 32.214
rfoot -3.22947 -3.55258
rtoes 5.83892
lfemur -13.5104 -1.21481 -18.4415
ltibia 32.1962
lfoot -15.7429 6.33887
ltoes -23.7224
